<svg width="434" height="126" viewBox="0 0 434 126" fill="none" xmlns="http://www.w3.org/2000/svg">
<path d="M0.0499878 27.64C156.63 29.31 263.69 92.9 390.55 72.77C390.55 72.77 419.72 69.21 433.67 64.47V121.73H0.0499878" fill="#00A6DB"/>
<path d="M404.2 42.21H371.7V89.33H404.2V42.21Z" fill="#3576A7"/>
<path d="M399.74 37.1H376.16V64.09H399.74V37.1Z" fill="#3576A7"/>
<path d="M396.43 31.72H379.46V58.71H396.43V31.72Z" fill="#3576A7"/>
<path d="M389.53 17.89H386.72V31.72H389.53V17.89Z" fill="#3576A7"/>
<path d="M382.97 51.76H371.7V54.05H382.97V51.76Z" fill="#09366D"/>
<path d="M404.2 51.76H392.93V54.05H404.2V51.76Z" fill="#09366D"/>
<path d="M404.2 61.39H392.93V63.68H404.2V61.39Z" fill="#09366D"/>
<path d="M404.2 71.02H392.93V73.31H404.2V71.02Z" fill="#09366D"/>
<path d="M382.97 61.39H371.7V63.68H382.97V61.39Z" fill="#09366D"/>
<path d="M382.97 71.02H371.7V73.31H382.97V71.02Z" fill="#09366D"/>
<path d="M344.87 37.45H311.31V90.44H344.87V37.45Z" fill="#3576A7"/>
<path d="M327.19 43.22H316.2V47.87H327.19V43.22Z" fill="#09366D"/>
<path d="M339.97 43.22H328.98V47.87H339.97V43.22Z" fill="#09366D"/>
<path d="M327.19 51.52H316.2V56.17H327.19V51.52Z" fill="#09366D"/>
<path d="M339.97 51.52H328.98V56.17H339.97V51.52Z" fill="#09366D"/>
<path d="M327.19 59.8199H316.2V64.4699H327.19V59.8199Z" fill="#09366D"/>
<path d="M339.97 59.8199H328.98V64.4699H339.97V59.8199Z" fill="#09366D"/>
<path d="M327.19 68.12H316.2V72.77H327.19V68.12Z" fill="#09366D"/>
<path d="M339.97 68.12H328.98V72.77H339.97V68.12Z" fill="#09366D"/>
<path d="M327.19 76.4199H316.2V81.0699H327.19V76.4199Z" fill="#09366D"/>
<path d="M339.97 76.4199H328.98V81.0699H339.97V76.4199Z" fill="#09366D"/>
<path d="M339.98 32.34H316.2V37.44H339.98V32.34Z" fill="#3576A7"/>
<path d="M0 42.41C156.51 42.45 240.62 100.7 389.08 87.45C403.67 86.15 418.15 85.03 433.67 81.08V125.2H0.05" fill="#09366D"/>
<path d="M249.784 51.2348L243.794 50.8768L241.921 82.2309L247.91 82.5888L249.784 51.2348Z" fill="#09366D"/>
<path d="M245.052 41.8139C245.369 36.5104 241.894 31.988 237.291 31.7129C232.687 31.4378 228.699 35.5142 228.382 40.8177C228.065 46.1212 231.539 50.6435 236.143 50.9187C240.746 51.1938 244.735 47.1174 245.052 41.8139Z" fill="#09366D"/>
<path d="M263.699 41.3778C264.052 35.4623 259.977 30.4062 254.596 30.0846C249.216 29.7631 244.567 34.2978 244.213 40.2133C243.86 46.1288 247.935 51.1849 253.316 51.5064C258.697 51.828 263.345 47.2932 263.699 41.3778Z" fill="#09366D"/>
<path d="M263.886 52.1296C264.192 47.019 260.408 42.6352 255.435 42.338C250.463 42.0408 246.184 45.9428 245.878 51.0534C245.573 56.164 249.357 60.5478 254.329 60.845C259.302 61.1421 263.581 57.2401 263.886 52.1296Z" fill="#09366D"/>
<path d="M247.506 51.6666C247.826 46.319 244.103 41.7459 239.191 41.4523C234.279 41.1588 230.037 45.2559 229.718 50.6035C229.398 55.9512 233.121 60.5242 238.033 60.8178C242.945 61.1113 247.187 57.0142 247.506 51.6666Z" fill="#09366D"/>
<path d="M254.699 54.9562C254.988 50.1213 251.24 45.9639 246.328 45.6703C241.416 45.3768 237.2 49.0583 236.911 53.8932C236.622 58.7281 240.37 62.8856 245.282 63.1791C250.194 63.4727 254.41 59.7912 254.699 54.9562Z" fill="#09366D"/>
<path d="M256.668 34.3506C256.981 29.1078 252.918 24.5996 247.593 24.2813C242.267 23.963 237.696 27.9552 237.382 33.1981C237.069 38.441 241.132 42.9492 246.458 43.2674C251.783 43.5857 256.355 39.5935 256.668 34.3506Z" fill="#09366D"/>
<path d="M179.82 59.97L160.81 56.75L104.92 45.79L92.59 41.45C92.06 38.98 92.64 35.91 93.36 33.42C93.46 33.1 93.55 32.77 93.66 32.47C94.33 30.49 94.94 29.52 94.94 29.52C95.63 29.43 96.76 29.31 97.74 29.27C97.82 29.27 97.91 29.26 97.99 29.25C99.72 29.16 101.78 29.14 103.78 29.15C108.83 29.19 113.64 27.78 118.61 26.83C147.54 21.32 159.16 39.69 159.16 39.69C172.18 43.26 179.27 45.92 179.27 45.92C180.64 46.72 181.36 47.99 181.67 49.44C181.71 49.61 181.75 49.79 181.77 49.96C181.95 51.08 181.9 52.28 181.74 53.46C181.27 56.87 179.85 59.99 179.85 59.99L179.82 59.97Z" fill="#3576A7"/>
<path d="M111.94 52.25C115.596 52.25 118.56 49.2861 118.56 45.63C118.56 41.9739 115.596 39.01 111.94 39.01C108.284 39.01 105.32 41.9739 105.32 45.63C105.32 49.2861 108.284 52.25 111.94 52.25Z" fill="#09366D"/>
<path d="M164.05 62.47C167.706 62.47 170.67 59.5061 170.67 55.85C170.67 52.1939 167.706 49.23 164.05 49.23C160.394 49.23 157.43 52.1939 157.43 55.85C157.43 59.5061 160.394 62.47 164.05 62.47Z" fill="#09366D"/>
<path d="M157.36 42.35L112.89 33.63C112.89 33.63 138.59 16.83 157.36 42.35Z" fill="#09366D"/>
<path d="M138.031 27.8301L136.274 27.4855L133.764 40.2815L135.52 40.6261L138.031 27.8301Z" fill="#3576A7"/>
<path d="M181.71 53.4399C177.35 53.0599 175.57 51.1699 175.57 51.1699L175.32 47.0299L181.65 49.4099C181.69 49.5799 181.73 49.7599 181.75 49.9299C181.93 51.0499 181.88 52.2499 181.72 53.4299L181.71 53.4399Z" fill="#09366D"/>
<path d="M97.27 32.79C96.98 34.01 95.07 33.83 93.35 33.41C93.45 33.09 93.54 32.76 93.65 32.46C94.32 30.48 94.93 29.51 94.93 29.51C95.62 29.42 96.75 29.3 97.73 29.26C97.61 30.7 97.46 32.03 97.28 32.79H97.27Z" fill="#09366D"/>
<path d="M111.94 48.89C113.74 48.89 115.2 47.4304 115.2 45.63C115.2 43.8295 113.74 42.37 111.94 42.37C110.14 42.37 108.68 43.8295 108.68 45.63C108.68 47.4304 110.14 48.89 111.94 48.89Z" fill="#3576A7"/>
<path d="M164.05 59.11C165.85 59.11 167.31 57.6504 167.31 55.85C167.31 54.0495 165.85 52.59 164.05 52.59C162.25 52.59 160.79 54.0495 160.79 55.85C160.79 57.6504 162.25 59.11 164.05 59.11Z" fill="#3576A7"/>
<path d="M30.03 14.8889C30.0759 11.9014 27.5256 9.4398 24.3338 9.39078C21.1419 9.34175 18.5173 11.7239 18.4714 14.7114C18.4255 17.6989 20.9758 20.1605 24.1676 20.2095C27.3594 20.2585 29.9841 17.8764 30.03 14.8889Z" fill="#09366D"/>
<path d="M38.7648 10.7252C38.818 7.25726 35.7007 4.39739 31.8021 4.33751C27.9034 4.27763 24.6997 7.0404 24.6464 10.5083C24.5932 13.9763 27.7105 16.8361 31.6092 16.896C35.5078 16.9559 38.7115 14.1931 38.7648 10.7252Z" fill="#09366D"/>
<path d="M62.6723 14.7088C62.7197 11.6274 59.9109 9.08572 56.3988 9.03177C52.8867 8.97782 50.0012 11.432 49.9538 14.5134C49.9065 17.5948 52.7153 20.1365 56.2274 20.1905C59.7395 20.2444 62.625 17.7902 62.6723 14.7088Z" fill="#09366D"/>
<path d="M57.12 10.2771C57.1794 6.41156 53.87 3.22635 49.7284 3.16274C45.5867 3.09912 42.1811 6.18119 42.1218 10.0467C42.0624 13.9123 45.3717 17.0975 49.5134 17.1611C53.655 17.2247 57.0606 14.1426 57.12 10.2771Z" fill="#09366D"/>
<path d="M50.0657 7.06268C50.1244 3.24132 46.3444 0.0847065 41.623 0.0121841C36.9015 -0.0603383 33.0264 2.9787 32.9677 6.80006C32.909 10.6214 36.6889 13.778 41.4104 13.8506C46.1319 13.9231 50.007 10.884 50.0657 7.06268Z" fill="#09366D"/>
<path d="M47.5423 17.2229C47.5929 13.9261 44.8674 11.2111 41.4547 11.1586C38.042 11.1062 35.2344 13.7363 35.1838 17.033C35.1331 20.3298 37.8586 23.0448 41.2713 23.0972C44.6841 23.1497 47.4917 20.5196 47.5423 17.2229Z" fill="#09366D"/>
<path d="M37.0124 18.0528C37.0547 15.2972 34.6627 13.0261 31.6697 12.9802C28.6767 12.9342 26.216 15.1307 26.1737 17.8863C26.1314 20.6419 28.5234 22.913 31.5164 22.959C34.5094 23.0049 36.9701 20.8084 37.0124 18.0528Z" fill="#09366D"/>
<path d="M55.6688 18.3295C55.7111 15.574 53.3191 13.3029 50.3261 13.2569C47.3331 13.2109 44.8724 15.4075 44.8301 18.1631C44.7878 20.9186 47.1798 23.1897 50.1728 23.2357C53.1658 23.2817 55.6265 21.0851 55.6688 18.3295Z" fill="#09366D"/>
<path d="M41.29 21.2001L40.93 45.1401" stroke="#09366D" stroke-width="3" stroke-miterlimit="10"/>
<path d="M50.6 22.6001C50.5 28.9501 31.86 28.6601 31.95 22.3201" stroke="#09366D" stroke-width="3" stroke-miterlimit="10"/>
</svg>
